<?xml version="1.0" encoding="UTF-8"?>
<svg id="Layer_1" xmlns="http://www.w3.org/2000/svg" version="1.1" viewBox="0 0 55.96 101.85">
  <!-- Generator: Adobe Illustrator 29.1.0, SVG Export Plug-In . SVG Version: 2.1.0 Build 142)  -->
  <defs>
    <style>
      .st0 {
        stroke: #284f60;
      }

      .st0, .st1, .st2, .st3 {
        fill: none;
        stroke-miterlimit: 10;
      }

      .st0, .st2 {
        stroke-width: 2px;
      }

      .st4 {
        fill: #619540;
      }

      .st1 {
        stroke: #fff;
      }

      .st2 {
        stroke: #619540;
      }

      .st5 {
        fill: #fff;
      }

      .st3 {
        stroke: #59595b;
      }

      .st6 {
        fill: #284f60;
      }
    </style>
  </defs>
  <g>
    <rect class="st6" y="51.44" width="55.96" height="50.4"/>
    <g>
      <path class="st5" d="M17.73,85.69c-.36.61-.95,1.04-1.64,1.2l-4.91,1.26,4.4,1.37c.57.16,1.02.62,1.17,1.2l1.21,4.16,1.2-5.09c.13-.79.62-1.47,1.32-1.85,4.62-2.45,22.22-12.66,24.95-27.04-12.82.72-25,20.21-27.68,24.78ZM41.84,65.47c-.42.43-1.12.44-1.55,0-.43-.43-.44-1.12-.02-1.56.42-.43,1.12-.44,1.55,0,.43.43.44,1.12.02,1.56Z"/>
      <path class="st5" d="M28.5,71.06c-2.01,2.16-3.84,4.42-5.4,6.54l-.85-4.77s3.85-2.24,6.25-1.77Z"/>
      <path class="st5" d="M38.98,73.51c1.17,3.58-2.63,7.27-2.63,7.27.83-1.09.34-3.1-.07-4.34.93-.93,1.84-1.91,2.7-2.93Z"/>
      <path class="st0" d="M20.77,85.13s7.74-13.25,14.6-17.13"/>
      <path class="st0" d="M37.83,65.69s-.05,4.01,5.03,2.2"/>
    </g>
  </g>
  <g>
    <rect class="st4" width="55.96" height="50.4"/>
    <g>
      <line class="st3" x1="36.08" y1="36.69" x2="37.35" y2="38.59"/>
      <path class="st1" d="M12.29,16.3h-3.27c-1.49,0-2.69-1.2-2.69-2.68v-.06c0-1.56,1.33-2.77,2.9-2.67,2.82.17,6.98-.26,9.15-3.79"/>
      <path class="st5" d="M46.05,26.04c-1.57-12.95-16.02-9.74-16.02-9.74H12.29s1.31,10.12,17.51,8.44c.76-.08,1.52-.21,2.26-.4,2.35-.58,9.5-1.37,4.02,12.34l-9.93,4.4,3.88.26-1.85,2.07,2.82-.62-.6,1.98s4.95-2.28,6.94-6.2c0,0,10.16-.53,8.7-12.54ZM19.87,20.31c-.75,0-1.36-.61-1.36-1.36s.61-1.36,1.36-1.36,1.36.61,1.36,1.36-.61,1.36-1.36,1.36Z"/>
      <polyline class="st1" points="31.42 28.52 32.28 26.07 35.6 24.31"/>
      <polyline class="st1" points="33.61 30.83 34.4 28.13 37.93 27.06"/>
      <polyline class="st1" points="34.73 34.05 35.53 31.74 37.85 30.94"/>
      <path class="st1" d="M12.29,16.3l-2.55-1.44c-1.24-.78-.98-2.12.77-2.11,2.03,0,6.5.54,7.87-.88"/>
      <path class="st2" d="M40.62,17.44s1.23,3.99-3.53,7.81"/>
      <path class="st2" d="M30.03,16.3s3.21,2.76,2.17,8.01"/>
      <path class="st2" d="M45.93,25.25s-1.24,2.41-7.84,3.63"/>
      <path class="st2" d="M37.64,31.95s3.01,3.13,7.07,2.27"/>
    </g>
  </g>
</svg>