<?xml version="1.0" encoding="UTF-8"?>
<svg id="Layer_1" xmlns="http://www.w3.org/2000/svg" version="1.1" viewBox="0 0 213.99 44.01">
  <!-- Generator: Adobe Illustrator 29.1.0, SVG Export Plug-In . SVG Version: 2.1.0 Build 142)  -->
  <defs>
    <style>
      .st0 {
        fill: #274e5f;
      }

      .st1 {
        fill: #fff;
      }
    </style>
  </defs>
  <g>
    <rect class="st0" x="29.94" y="10.23" width="184.06" height="23.55"/>
    <path class="st1" d="M22.01.78C10.3.78.78,10.3.78,22.01s9.52,21.23,21.22,21.23,21.22-9.52,21.22-21.23S33.71.78,22.01.78h0Z"/>
    <path class="st0" d="M22.01,44.01C9.87,44.01,0,34.14,0,22.01S9.87,0,22.01,0s22.01,9.87,22.01,22.01-9.87,22.01-22.01,22.01h0ZM22.01.78C10.3.78.78,10.3.78,22.01s9.52,21.23,21.22,21.23,21.22-9.52,21.22-21.23S33.71.78,22.01.78h0Z"/>
    <circle class="st0" cx="22.01" cy="22.01" r="19.5"/>
  </g>
  <g>
    <path class="st1" d="M59.31,17.27h2.71l4.32,10.22h-3.02l-.74-1.81h-3.91l-.72,1.81h-2.96l4.32-10.22ZM61.77,23.49l-1.13-2.89-1.15,2.89h2.28ZM61.03,13.98l2.57.83-2.13,1.86h-1.94l1.51-2.68Z"/>
    <path class="st1" d="M66.25,22.45v-.03c0-2.96,2.28-5.28,5.35-5.28,2.07,0,3.41.87,4.31,2.12l-2.12,1.64c-.58-.72-1.25-1.19-2.22-1.19-1.42,0-2.42,1.2-2.42,2.68v.03c0,1.52,1,2.71,2.42,2.71,1.06,0,1.68-.49,2.29-1.23l2.12,1.51c-.96,1.32-2.25,2.29-4.49,2.29-2.9,0-5.23-2.22-5.23-5.25Z"/>
    <path class="st1" d="M76.51,17.34h2.83v10.15h-2.83v-10.15Z"/>
    <path class="st1" d="M80.46,17.34h3.91c3.62,0,5.73,2.09,5.73,5.02v.03c0,2.93-2.13,5.1-5.78,5.1h-3.86v-10.15ZM84.42,25c1.68,0,2.8-.93,2.8-2.57v-.03c0-1.62-1.12-2.57-2.8-2.57h-1.15v5.16h1.15Z"/>
    <path class="st1" d="M90.48,22.45v-.03c0-2.91,2.35-5.28,5.48-5.28s5.45,2.33,5.45,5.25v.03c0,2.91-2.35,5.28-5.48,5.28s-5.45-2.33-5.45-5.25ZM98.54,22.45v-.03c0-1.46-1.06-2.74-2.61-2.74s-2.57,1.25-2.57,2.71v.03c0,1.46,1.06,2.74,2.59,2.74s2.58-1.25,2.58-2.71Z"/>
    <path class="st1" d="M101.3,25.98l1.57-1.87c1,.8,2.12,1.22,3.29,1.22.75,0,1.16-.26,1.16-.7v-.03c0-.42-.33-.65-1.71-.97-2.16-.49-3.83-1.1-3.83-3.19v-.03c0-1.88,1.49-3.25,3.93-3.25,1.73,0,3.07.46,4.17,1.35l-1.41,1.99c-.93-.65-1.94-1-2.84-1-.68,0-1.01.29-1.01.65v.03c0,.46.35.67,1.75.99,2.33.51,3.78,1.26,3.78,3.16v.03c0,2.07-1.64,3.3-4.1,3.3-1.8,0-3.51-.56-4.75-1.68Z"/>
    <path class="st1" d="M113.74,22.45v-.03c0-2.91,2.35-5.28,5.48-5.28s5.45,2.33,5.45,5.25v.03c0,2.91-2.35,5.28-5.48,5.28s-5.45-2.33-5.45-5.25ZM121.8,22.45v-.03c0-1.46-1.06-2.74-2.61-2.74s-2.57,1.25-2.57,2.71v.03c0,1.46,1.06,2.74,2.59,2.74s2.58-1.25,2.58-2.71Z"/>
    <path class="st1" d="M125.4,17.34h4.8c1.55,0,2.62.41,3.3,1.1.59.58.9,1.36.9,2.36v.03c0,1.55-.83,2.58-2.09,3.12l2.42,3.54h-3.25l-2.04-3.07h-1.23v3.07h-2.81v-10.15ZM130.07,22.21c.96,0,1.51-.46,1.51-1.2v-.03c0-.8-.58-1.2-1.52-1.2h-1.84v2.44h1.86Z"/>
    <path class="st1" d="M134.75,22.45v-.03c0-2.96,2.32-5.28,5.46-5.28,1.78,0,3.04.55,4.12,1.48l-1.65,1.99c-.73-.61-1.45-.96-2.45-.96-1.46,0-2.59,1.23-2.59,2.78v.03c0,1.64,1.15,2.81,2.75,2.81.68,0,1.2-.15,1.62-.42v-1.23h-2v-2.06h4.67v4.57c-1.07.88-2.57,1.57-4.41,1.57-3.16,0-5.52-2.17-5.52-5.25Z"/>
    <path class="st1" d="M149.03,17.27h2.71l4.32,10.22h-3.02l-.74-1.81h-3.91l-.72,1.81h-2.96l4.32-10.22ZM151.49,23.49l-1.13-2.89-1.15,2.89h2.28ZM150.75,13.98l2.57.83-2.13,1.86h-1.94l1.51-2.68Z"/>
    <path class="st1" d="M156.32,17.34h2.62l4.17,5.36v-5.36h2.78v10.15h-2.46l-4.33-5.57v5.57h-2.78v-10.15Z"/>
    <path class="st1" d="M167.02,17.34h2.83v10.15h-2.83v-10.15Z"/>
    <path class="st1" d="M170.63,22.45v-.03c0-2.96,2.28-5.28,5.35-5.28,2.07,0,3.41.87,4.31,2.12l-2.12,1.64c-.58-.72-1.25-1.19-2.22-1.19-1.42,0-2.42,1.2-2.42,2.68v.03c0,1.52,1,2.71,2.42,2.71,1.06,0,1.68-.49,2.29-1.23l2.12,1.51c-.96,1.32-2.25,2.29-4.49,2.29-2.9,0-5.23-2.22-5.23-5.25Z"/>
    <path class="st1" d="M180.2,22.45v-.03c0-2.91,2.35-5.28,5.48-5.28s5.45,2.33,5.45,5.25v.03c0,2.91-2.35,5.28-5.48,5.28s-5.45-2.33-5.45-5.25ZM188.26,22.45v-.03c0-1.46-1.06-2.74-2.61-2.74s-2.57,1.25-2.57,2.71v.03c0,1.46,1.06,2.74,2.59,2.74s2.58-1.25,2.58-2.71Z"/>
    <path class="st1" d="M191.02,25.98l1.57-1.87c1,.8,2.12,1.22,3.29,1.22.75,0,1.16-.26,1.16-.7v-.03c0-.42-.33-.65-1.71-.97-2.16-.49-3.83-1.1-3.83-3.19v-.03c0-1.88,1.49-3.25,3.93-3.25,1.73,0,3.07.46,4.17,1.35l-1.41,1.99c-.93-.65-1.94-1-2.84-1-.68,0-1.01.29-1.01.65v.03c0,.46.35.67,1.75.99,2.33.51,3.78,1.26,3.78,3.16v.03c0,2.07-1.64,3.3-4.1,3.3-1.8,0-3.51-.56-4.75-1.68Z"/>
  </g>
  <g>
    <path class="st1" d="M22.18,19.6c.3-.13.65-.21.98-.24,1.12-.09,3.14-.1,4.26,0,.58.05,1.25.3,1.69.67.69.57,2.05,3.1,2.53,4,.19.35.33.74.51,1.07h2.57c.49-1.48,2.26-2.19,3.55-1.17,2,1.58.25,4.79-2.24,3.81-.69-.27-1-.83-1.31-1.46h-2.57c-.1.05-.33.74-.43.92-.55,1.04-1.34,2.48-1.99,3.44-.57.83-1.52,1.38-2.55,1.39-.23,0-.42-.09-.62-.08-1.56.03-4.05.38-5.24-.74-.5-.47-2.19-3.42-2.53-4.16-.14-.31-.26-.65-.3-1-.33.11-.63.21-.98.24-1.18.09-3.06.08-4.26,0-.38-.02-.76-.32-1.02,0-.4.49-.67,1.37-1.11,1.88.27.5.56.86.6,1.46.15,2.25-2.7,3.27-4.02,1.5s.39-4.02,2.43-3.51l1.26-2.15c-.23-.24-.42-.52-.6-.8-.8-1.33-2.36-3.59-2.22-5.1.07-.71,1.88-3.82,2.38-4.55,1.22-1.78,2.97-1.32,4.83-1.31.43,0,.85-.1,1.33-.08.52.02,1.03.16,1.53.28l1.48-1.91c-1.25-1.95.6-4.31,2.79-3.32,1.79.81,1.61,3.48-.27,4.12-.67.23-1.02.02-1.65,0l-1.42,1.89c.68,1.26,1.62,2.54,2.25,3.82.17.35.34.71.35,1.1ZM21.69,9.62c-1.09.22-1.08,1.9.08,2.09,1.64.26,1.58-2.42-.08-2.09ZM13.35,14.82c-.43.05-.95.23-1.24.57s-2.23,3.71-2.34,4.11c-.14.49-.04.84.16,1.29.31.72,1.6,3,2.07,3.6.33.43.79.67,1.33.72,1.04.09,3.06.09,4.1,0,.56-.05.98-.27,1.33-.72.47-.61,1.75-2.86,2.08-3.58.27-.6.32-.92.07-1.54-.32-.81-1.55-2.84-2.07-3.59-.43-.63-.88-.81-1.64-.87-.98-.08-2.87-.09-3.84.02ZM23.03,20.57c-.39.06-.74.27-1,.57-.46.54-1.21,1.98-1.59,2.66-.41.74-.89,1.33-.78,2.22.06.44,1.76,3.33,2.12,3.86.46.67.75.92,1.61.98,1.02.08,2.68.07,3.71,0,.67-.05,1.13-.2,1.55-.73.43-.56,1.92-3.1,2.16-3.74.19-.49.14-1.06-.07-1.54-.3-.7-1.62-3-2.08-3.59-.35-.44-.77-.67-1.33-.72-.98-.08-3.37-.11-4.31.02ZM36.72,24.66c-1.1.17-1.16,1.78-.04,2.05,1.63.4,1.75-2.32.04-2.05ZM9.26,28.75c-1.08.22-1.11,1.92.08,2.09,1.65.24,1.55-2.42-.08-2.09Z"/>
    <path class="st1" d="M10.87,20.36c-.14-.12-.24-.43-.14-.61.64-1.02,1.14-2.16,1.79-3.17.24-.37.52-.78,1-.48.29.18.33.45.22.75-.37,1.05-1.55,2.36-1.99,3.45-.2.27-.65.25-.88.06Z"/>
    <path class="st1" d="M27.67,22.41c-.09.09-.36.17-.49.18-.77.09-3.03.1-3.77,0-.82-.12-.78-1.07-.16-1.17h4.16c.43.12.57.68.26,1Z"/>
  </g>
</svg>