<?xml version="1.0" encoding="UTF-8"?>
<svg id="Layer_1" xmlns="http://www.w3.org/2000/svg" version="1.1" viewBox="0 0 213.99 44.01">
  <!-- Generator: Adobe Illustrator 29.1.0, SVG Export Plug-In . SVG Version: 2.1.0 Build 142)  -->
  <defs>
    <style>
      .st0 {
        fill: #fff;
      }

      .st1 {
        fill: #609440;
      }
    </style>
  </defs>
  <g>
    <rect class="st1" x="29.94" y="10.23" width="184.06" height="23.55"/>
    <path class="st0" d="M22.01.78C10.3.78.78,10.3.78,22s9.52,21.23,21.22,21.23,21.22-9.52,21.22-21.23S33.71.78,22.01.78h0Z"/>
    <path class="st1" d="M22.01,44.01C9.87,44.01,0,34.14,0,22S9.87,0,22.01,0s22.01,9.87,22.01,22.01-9.87,22.01-22.01,22.01h0ZM22.01.78C10.3.78.78,10.3.78,22s9.52,21.23,21.22,21.23,21.22-9.52,21.22-21.23S33.71.78,22.01.78h0Z"/>
    <circle class="st1" cx="22.01" cy="22" r="19.5"/>
  </g>
  <g>
    <path class="st0" d="M55.8,17.34h5.2c1.28,0,2.17.32,2.77.91.41.41.65.94.65,1.64v.03c0,1.17-.67,1.87-1.57,2.26,1.23.41,2.02,1.1,2.02,2.48v.03c0,1.74-1.42,2.8-3.84,2.8h-5.23v-10.15ZM60.31,21.39c.86,0,1.33-.29,1.33-.88v-.03c0-.55-.43-.87-1.28-.87h-1.83v1.78h1.77ZM60.71,25.23c.86,0,1.35-.33,1.35-.93v-.03c0-.55-.44-.91-1.38-.91h-2.15v1.87h2.17Z"/>
    <path class="st0" d="M65.49,17.34h2.83v10.15h-2.83v-10.15Z"/>
    <path class="st0" d="M69.1,22.44v-.03c0-2.91,2.35-5.28,5.48-5.28s5.45,2.33,5.45,5.25v.03c0,2.91-2.35,5.28-5.48,5.28s-5.45-2.33-5.45-5.25ZM77.16,22.44v-.03c0-1.46-1.06-2.74-2.61-2.74s-2.57,1.25-2.57,2.71v.03c0,1.46,1.06,2.74,2.59,2.74s2.58-1.25,2.58-2.71Z"/>
    <path class="st0" d="M80.77,17.34h4.8c1.55,0,2.62.41,3.3,1.1.59.58.9,1.36.9,2.36v.03c0,1.55-.83,2.58-2.09,3.12l2.42,3.54h-3.25l-2.04-3.07h-1.23v3.07h-2.81v-10.15ZM85.43,22.21c.96,0,1.51-.46,1.51-1.2v-.03c0-.8-.58-1.2-1.52-1.2h-1.84v2.44h1.86Z"/>
    <path class="st0" d="M90.46,17.34h4.8c1.55,0,2.62.41,3.3,1.1.59.58.9,1.36.9,2.36v.03c0,1.55-.83,2.58-2.09,3.12l2.42,3.54h-3.25l-2.04-3.07h-1.23v3.07h-2.81v-10.15ZM95.13,22.21c.96,0,1.51-.46,1.51-1.2v-.03c0-.8-.58-1.2-1.52-1.2h-1.84v2.44h1.86Z"/>
    <path class="st0" d="M100.16,17.34h8.16v2.39h-5.38v1.54h4.87v2.22h-4.87v1.61h5.45v2.39h-8.23v-10.15Z"/>
    <path class="st0" d="M109.1,17.34h2.97l2.42,3.93,2.42-3.93h2.97v10.15h-2.8v-5.83l-2.59,3.97h-.06l-2.58-3.94v5.8h-2.75v-10.15Z"/>
    <path class="st0" d="M120.95,17.34h8.16v2.39h-5.38v1.54h4.87v2.22h-4.87v1.61h5.45v2.39h-8.23v-10.15Z"/>
    <path class="st0" d="M129.89,17.34h3.91c3.62,0,5.73,2.09,5.73,5.02v.03c0,2.93-2.13,5.1-5.78,5.1h-3.86v-10.15ZM133.85,24.99c1.68,0,2.8-.93,2.8-2.57v-.03c0-1.62-1.12-2.57-2.8-2.57h-1.15v5.16h1.15Z"/>
    <path class="st0" d="M140.32,17.34h2.83v10.15h-2.83v-10.15Z"/>
    <path class="st0" d="M147.78,17.27h2.71l4.32,10.22h-3.02l-.74-1.81h-3.91l-.72,1.81h-2.96l4.32-10.22ZM150.24,23.49l-1.13-2.88-1.15,2.88h2.28Z"/>
    <path class="st0" d="M155.07,17.34h3.91c3.62,0,5.73,2.09,5.73,5.02v.03c0,2.93-2.13,5.1-5.78,5.1h-3.86v-10.15ZM159.03,24.99c1.68,0,2.8-.93,2.8-2.57v-.03c0-1.62-1.12-2.57-2.8-2.57h-1.15v5.16h1.15Z"/>
    <path class="st0" d="M165.08,22.44v-.03c0-2.91,2.35-5.28,5.48-5.28s5.45,2.33,5.45,5.25v.03c0,2.91-2.35,5.28-5.48,5.28s-5.45-2.33-5.45-5.25ZM173.14,22.44v-.03c0-1.46-1.06-2.74-2.61-2.74s-2.57,1.25-2.57,2.71v.03c0,1.46,1.06,2.74,2.59,2.74s2.58-1.25,2.58-2.71Z"/>
    <path class="st0" d="M176.75,17.34h4.8c1.55,0,2.62.41,3.3,1.1.59.58.9,1.36.9,2.36v.03c0,1.55-.83,2.58-2.09,3.12l2.42,3.54h-3.25l-2.04-3.07h-1.23v3.07h-2.81v-10.15ZM181.42,22.21c.96,0,1.51-.46,1.51-1.2v-.03c0-.8-.58-1.2-1.52-1.2h-1.84v2.44h1.86Z"/>
    <path class="st0" d="M186.44,17.34h8.16v2.39h-5.38v1.54h4.87v2.22h-4.87v1.61h5.45v2.39h-8.23v-10.15Z"/>
    <path class="st0" d="M194.62,25.98l1.57-1.87c1,.8,2.12,1.22,3.29,1.22.75,0,1.16-.26,1.16-.7v-.03c0-.42-.33-.65-1.71-.97-2.16-.49-3.83-1.1-3.83-3.19v-.03c0-1.88,1.49-3.25,3.93-3.25,1.73,0,3.07.46,4.17,1.35l-1.41,1.99c-.93-.65-1.94-1-2.84-1-.68,0-1.01.29-1.01.65v.03c0,.46.35.67,1.75.99,2.33.51,3.78,1.26,3.78,3.16v.03c0,2.07-1.64,3.3-4.1,3.3-1.8,0-3.51-.57-4.75-1.68Z"/>
  </g>
  <g id="_x37_aK39X">
    <g>
      <path class="st0" d="M36.36,28.38c-.12,1.63-.78,3.49-1.66,4.88-.17.27-.54.85-.75,1.04-.36.34-.88.05-.77-.43,1.25-1.58,2.08-3.44,2.27-5.46-.56-.41-1.06-.88-1.22-1.59-2.05-.1-3.24-2.3-2.2-4.08-.65-.64-.98-1.48-.87-2.4.03-.23.32-.9.3-.94-.01-.03-.22-.18-.26-.19-.24-.08-.45.15-.67.22-1.23.42-2.59-.07-3.23-1.2-.07-.13-.26-.66-.29-.68-.1-.07-.97-.14-1.1-.11-.79.96-1.96,1.17-3.11.74-.13-.05-.31-.2-.4-.22-.28-.07-1.55.57-1.87.75-.19.11-.98.57-1.01.73-.03.14.01.32-.02.49-.23,1.34-1.25,2.23-2.61,2.3-.12.34-.86,1.47-.83,1.76,0,.08.21.28.27.38.64,1.18.51,2.48-.49,3.41-.08.07-.36.23-.37.26-.08.28.17,1.47.25,1.81,1.65,6.9,9.82,9.79,15.6,5.72.2-.14.85-.73.98-.76.44-.12.73.33.49.71-.09.14-.62.54-.79.67-4.63,3.48-11.37,2.67-14.98-1.84-1.11,1.21-3.19,1.01-4.09-.34-1.13-1.68-.13-3.94,1.88-4.15l-.23-1.46c-1.19.27-2.51-.44-2.97-1.55-.96-2.33,1.42-4.52,3.66-3.45l.71-1.32c-1.51-.56-2.25-2.28-1.51-3.75.98-1.94,3.88-1.92,4.76.07.08.05.9-.5,1.06-.59.43-.23.89-.43,1.35-.59-1.36-2.05.51-4.69,2.91-4.06,1.19.31,2.05,1.51,1.98,2.74-.03.52-.39.77.45.7.52-3.58,5.83-2.84,5.25.85-.07.43-.29.75-.48,1.12.26.12.78.45.78.76,0,.23-.36.61-.44.9-.14.52-.06,1.1.25,1.54.16.23.72.58.75.76.07.37-.16.42-.29.66-.47.86-.33,1.88.5,2.44.53.36.8.21,1.33.29.39.06.39.76.62,1.12.31.48.8.53,1.09.96,0,.13,0,.26,0,.39ZM23.6,13.96c-2.23.3-1.9,3.81.54,3.52,2.19-.27,1.88-3.84-.54-3.52ZM29.33,15.14c-2.21.32-1.86,3.85.6,3.52,2.19-.29,1.79-3.87-.6-3.52ZM16.53,17.78c-2.15.31-1.81,3.87.64,3.51,2.16-.32,1.82-3.87-.64-3.51ZM15.34,24.52c-1.61-1.67-4.2.77-2.57,2.48,1.61,1.69,4.18-.8,2.57-2.48ZM14.9,30.69c-.81.07-1.51.86-1.56,1.65-.11,1.71,2,2.56,3.13,1.29-.38-.55-.72-1.14-.99-1.75-.1-.22-.35-1.04-.43-1.14-.05-.07-.08-.05-.15-.05Z"/>
      <path class="st0" d="M10.93,9.57c1.75.4,2.71,2.32,1.83,3.93-1.08,1.96-4.01,1.79-4.81-.3-.62-1.61.33-3.24,1.98-3.63h1.01ZM10.4,10.43c-2.39.03-2.26,3.61.05,3.58,2.3-.03,2.29-3.6-.05-3.58Z"/>
      <path class="st0" d="M10.02,17.73c3.55-.36,3.98,5.02.54,5.32-3.57.31-3.97-4.97-.54-5.32ZM10.01,18.62c-.75.1-1.41.79-1.5,1.54-.2,1.84,2.15,2.76,3.24,1.22.89-1.26-.22-2.96-1.74-2.75Z"/>
      <path class="st0" d="M21.75,19.52c3.68-.44,4.11,5,.65,5.31-3.49.31-3.98-4.91-.65-5.31ZM21.8,20.42c-2.12.31-1.82,3.77.54,3.52,2.28-.25,1.97-3.88-.54-3.52Z"/>
      <path class="st0" d="M19.48,13.48c-.22-.27.06-.74.09-1.03.17-1.57-1.71-2.56-2.94-1.54s-.47,3.13,1.12,3.15c.39,0,1.07-.41,1.28.07s-.29.67-.67.76c-2.4.53-4.2-2.3-2.68-4.25,1.39-1.77,4.25-1.15,4.72,1.05.1.48.08,1.31-.21,1.72-.16.23-.54.29-.71.07Z"/>
    </g>
  </g>
</svg>